# xmcd CD database file
#
# Track frame offsets:
#	150
#	18300
#	34900
#
# Disc length: 704 seconds
#
# Revision: 1
# Processed by: cddbd v1.5PL3 Copyright (c) Steve Scherf et al.
# Submitted via: CDex 1.51
#
DISCID=1b02be03
DTITLE=メロン記念日 - MI DA RA 摩天楼
DYEAR=2003
DGENRE=JPop
TTITLE0=MI DA RA 摩天楼
TTITLE1=二人のパラダイス
TTITLE2=MI DA RA 摩天楼（Instrumental）
EXTD=YEAR: 2003
EXTT0=
EXTT1=
EXTT2=
PLAYORDER=
